{
  "source": "C:\\Users\\Peter\\Desktop\\stuff\\MIUN\\quantitative_research\\video_compression\\videos\\UVG\\Jockey_1920x1080_120fps_420_8bit_YUV.y4m",
  "output": "C:\\Users\\Peter\\Desktop\\stuff\\MIUN\\quantitative_research\\video_compression\\compressed_videos\\UVG\\h264\\8\\Jockey_1920x1080_120fps_420_8bit_YUV_h264.mp4",
  "codec": "h264",
  "ok": "[yuv4mpegpipe @ 000001fc4e366600] Stream #0: not enough frames to estimate rate; consider increasing probesize\nInput #0, yuv4mpegpipe, from 'C:\\Users\\Peter\\Desktop\\stuff\\MIUN\\quantitative_research\\video_compression\\videos\\UVG\\Jockey_1920x1080_120fps_420_8bit_YUV.y4m':\n  Duration: 00:00:05.00, start: 0.000000, bitrate: 2985989 kb/s\n  Stream #0:0: Video: rawvideo (I420 / 0x30323449), yuv420p(progressive), 1920x1080, 120 fps, 120 tbr, 120 tbn\n[out#0/mp4 @ 000001fc4e36a180] Codec AVOption b:a (set bitrate (in bits/s)) has not been used for any stream. The most likely reason is either wrong type (e.g. a video option with no video streams) or that it is a private option of some decoder which was not actually used for any stream.\nStream mapping:\n  Stream #0:0 -> #0:0 (rawvideo (native) -> h264 (libx264))\nPress [q] to stop, [?] for help\n[libx264 @ 000001fc4e36c940] using cpu capabilities: MMX2 SSE2Fast SSSE3 SSE4.2 AVX FMA3 BMI2 AVX2\n[libx264 @ 000001fc4e36c940] profile High, level 5.1, 4:2:0, 8-bit\n[libx264 @ 000001fc4e36c940] 264 - core 165 r3222 b35605a - H.264/MPEG-4 AVC codec - Copyleft 2003-2025 - http://www.videolan.org/x264.html - options: cabac=1 ref=5 deblock=1:0:0 analyse=0x3:0x113 me=hex subme=8 psy=1 psy_rd=1.00:0.00 mixed_ref=1 me_range=16 chroma_me=1 trellis=2 8x8dct=1 cqm=0 deadzone=21,11 fast_pskip=1 chroma_qp_offset=-2 threads=18 lookahead_threads=3 sliced_threads=0 nr=0 decimate=1 interlaced=0 bluray_compat=0 constrained_intra=0 bframes=3 b_pyramid=2 b_adapt=1 b_bias=0 direct=3 weightb=1 open_gop=0 weightp=2 keyint=250 keyint_min=25 scenecut=40 intra_refresh=0 rc_lookahead=50 rc=cbr mbtree=1 bitrate=8000 ratetol=1.0 qcomp=0.60 qpmin=0 qpmax=69 qpstep=4 vbv_maxrate=8000 vbv_bufsize=8000 nal_hrd=none filler=0 ip_ratio=1.40 aq=1:1.00\nOutput #0, mp4, to 'C:\\Users\\Peter\\Desktop\\stuff\\MIUN\\quantitative_research\\video_compression\\compressed_videos\\UVG\\h264\\8\\Jockey_1920x1080_120fps_420_8bit_YUV_h264.mp4':\n  Metadata:\n    encoder         : Lavf62.3.100\n  Stream #0:0: Video: h264 (avc1 / 0x31637661), yuv420p(tv, progressive), 1920x1080, q=2-31, 8000 kb/s, 120 fps, 15360 tbn\n    Metadata:\n      encoder         : Lavc62.11.100 libx264\n    Side data:\n      cpb: bitrate max/min/avg: 8000000/0/8000000 buffer size: 8000000 vbv_delay: N/A\nframe=    0 fps=0.0 q=0.0 size=       0KiB time=N/A bitrate=N/A speed=N/A elapsed=0:00:00.51    \nframe=    0 fps=0.0 q=0.0 size=       0KiB time=N/A bitrate=N/A speed=N/A elapsed=0:00:01.06    \nframe=   18 fps= 11 q=34.0 size=       0KiB time=00:00:00.10 bitrate=   3.5kbits/s speed=0.0683x elapsed=0:00:01.58    \nframe=   44 fps= 20 q=33.0 size=       0KiB time=00:00:00.32 bitrate=   1.2kbits/s speed=0.151x elapsed=0:00:02.15    \nframe=   62 fps= 23 q=32.0 size=     256KiB time=00:00:00.50 bitrate=4195.1kbits/s speed=0.182x elapsed=0:00:02.75    \nframe=   88 fps= 26 q=32.0 size=     512KiB time=00:00:00.70 bitrate=5921.9kbits/s speed=0.211x elapsed=0:00:03.35    \nframe=  110 fps= 28 q=32.0 size=     512KiB time=00:00:00.86 bitrate=4840.0kbits/s speed=0.223x elapsed=0:00:03.88    \nframe=  127 fps= 29 q=32.0 size=     768KiB time=00:00:01.00 bitrate=6239.8kbits/s speed=0.229x elapsed=0:00:04.40    \nframe=  145 fps= 29 q=32.0 size=     768KiB time=00:00:01.19 bitrate=5279.9kbits/s speed=0.241x elapsed=0:00:04.95    \nframe=  162 fps= 29 q=32.0 size=    1024KiB time=00:00:01.33 bitrate=6291.7kbits/s speed=0.242x elapsed=0:00:05.50    \nframe=  186 fps= 31 q=32.0 size=    1280KiB time=00:00:01.50 bitrate=6952.1kbits/s speed=0.25x elapsed=0:00:06.02    \nframe=  207 fps= 31 q=32.0 size=    1536KiB time=00:00:01.70 bitrate=7365.8kbits/s speed=0.259x elapsed=0:00:06.59    \nframe=  224 fps= 31 q=32.0 size=    1536KiB time=00:00:01.85 bitrate=6801.8kbits/s speed=0.26x elapsed=0:00:07.11    \nframe=  225 fps= 29 q=32.0 size=    1536KiB time=00:00:01.85 bitrate=6771.3kbits/s speed=0.242x elapsed=0:00:07.68    \nframe=  244 fps= 30 q=33.0 size=    1792KiB time=00:00:02.01 bitrate=7279.6kbits/s speed=0.245x elapsed=0:00:08.24    \nframe=  268 fps= 30 q=33.0 size=    2048KiB time=00:00:02.21 bitrate=7568.8kbits/s speed=0.251x elapsed=0:00:08.84    \nframe=  288 fps= 31 q=35.0 size=    2304KiB time=00:00:02.35 bitrate=8003.4kbits/s speed=0.251x elapsed=0:00:09.39    \nframe=  305 fps= 31 q=37.0 size=    2560KiB time=00:00:02.52 bitrate=8305.7kbits/s speed=0.254x elapsed=0:00:09.95    \nframe=  323 fps= 31 q=37.0 size=    2560KiB time=00:00:02.66 bitrate=7864.5kbits/s speed=0.254x elapsed=0:00:10.50    \nframe=  345 fps= 31 q=36.0 size=    2816KiB time=00:00:02.83 bitrate=8142.0kbits/s speed=0.256x elapsed=0:00:11.05    \nframe=  361 fps= 31 q=38.0 size=    3072KiB time=00:00:02.99 bitrate=8412.1kbits/s speed=0.257x elapsed=0:00:11.61    \nframe=  378 fps= 31 q=37.0 size=    3072KiB time=00:00:03.12 bitrate=8053.2kbits/s speed=0.257x elapsed=0:00:12.14    \nframe=  398 fps= 31 q=36.0 size=    3328KiB time=00:00:03.30 bitrate=8261.6kbits/s speed=0.26x elapsed=0:00:12.70    \nframe=  399 fps= 30 q=36.0 size=    3328KiB time=00:00:03.30 bitrate=8240.8kbits/s speed=0.25x elapsed=0:00:13.23    \nframe=  422 fps= 31 q=35.0 size=    3328KiB time=00:00:03.50 bitrate=7789.5kbits/s speed=0.254x elapsed=0:00:13.78    \nframe=  428 fps= 30 q=35.0 size=    3584KiB time=00:00:03.55 bitrate=8270.6kbits/s speed=0.248x elapsed=0:00:14.31    \nframe=  436 fps= 29 q=35.0 size=    3584KiB time=00:00:03.60 bitrate=8136.9kbits/s speed=0.243x elapsed=0:00:14.84    \nframe=  447 fps= 29 q=35.0 size=    3584KiB time=00:00:03.70 bitrate=7917.4kbits/s speed=0.241x elapsed=0:00:15.38    \nframe=  457 fps= 29 q=35.0 size=    3584KiB time=00:00:03.79 bitrate=7743.4kbits/s speed=0.238x elapsed=0:00:15.90    \nframe=  469 fps= 29 q=35.0 size=    3840KiB time=00:00:03.89 bitrate=8083.3kbits/s speed=0.237x elapsed=0:00:16.41    \nframe=  483 fps= 29 q=35.0 size=    3840KiB time=00:00:04.00 bitrate=7864.4kbits/s speed=0.236x elapsed=0:00:16.94    \nframe=  495 fps= 28 q=35.0 size=    3840KiB time=00:00:04.10 bitrate=7672.6kbits/s speed=0.234x elapsed=0:00:17.49    \nframe=  506 fps= 28 q=35.0 size=    3840KiB time=00:00:04.20 bitrate=7489.9kbits/s speed=0.233x elapsed=0:00:18.03    \nframe=  533 fps= 29 q=35.0 size=    4096KiB time=00:00:04.42 bitrate=7583.0kbits/s speed=0.238x elapsed=0:00:18.58    \nframe=  558 fps= 29 q=33.0 size=    4352KiB time=00:00:04.59 bitrate=7764.5kbits/s speed=0.24x elapsed=0:00:19.11    \nframe=  583 fps= 30 q=33.0 size=    4352KiB time=00:00:04.84 bitrate=7363.6kbits/s speed=0.246x elapsed=0:00:19.65    \n[mp4 @ 000001fc4e36a280] Starting second pass: moving the moov atom to the beginning of the file\n[out#0/mp4 @ 000001fc4e36a180] video:4690KiB audio:0KiB subtitle:0KiB other streams:0KiB global headers:0KiB muxing overhead: 0.150888%\nframe=  600 fps= 30 q=-1.0 Lsize=    4697KiB time=00:00:04.98 bitrate=7722.0kbits/s speed=0.25x elapsed=0:00:19.94    \n[libx264 @ 000001fc4e36c940] frame I:7     Avg QP:30.29  size: 26740\n[libx264 @ 000001fc4e36c940] frame P:230   Avg QP:31.26  size: 11682\n[libx264 @ 000001fc4e36c940] frame B:363   Avg QP:33.56  size:  5312\n[libx264 @ 000001fc4e36c940] consecutive B-frames: 16.2%  5.7% 11.5% 66.7%\n[libx264 @ 000001fc4e36c940] mb I  I16..4: 59.1% 38.6%  2.3%\n[libx264 @ 000001fc4e36c940] mb P  I16..4:  6.7%  4.0%  0.1%  P16..4: 29.3%  3.1%  3.4%  0.0%  0.0%    skip:53.3%\n[libx264 @ 000001fc4e36c940] mb B  I16..4:  0.7%  0.7%  0.0%  B16..8: 35.9%  1.7%  0.2%  direct: 0.5%  skip:60.3%  L0:43.3% L1:55.8% BI: 0.9%\n[libx264 @ 000001fc4e36c940] 8x8 transform intra:38.9% inter:92.4%\n[libx264 @ 000001fc4e36c940] direct mvs  spatial:97.5% temporal:2.5%\n[libx264 @ 000001fc4e36c940] coded y,uvDC,uvAC intra: 19.5% 40.0% 6.4% inter: 3.3% 6.8% 0.1%\n[libx264 @ 000001fc4e36c940] i16 v,h,dc,p: 11% 44%  4% 41%\n[libx264 @ 000001fc4e36c940] i8 v,h,dc,ddl,ddr,vr,hd,vl,hu:  8% 11%  7%  9% 16% 12% 16%  8% 13%\n[libx264 @ 000001fc4e36c940] i4 v,h,dc,ddl,ddr,vr,hd,vl,hu: 10% 12%  7%  9% 17% 12% 14%  7% 12%\n[libx264 @ 000001fc4e36c940] i8c dc,h,v,p: 38% 40% 11% 11%\n[libx264 @ 000001fc4e36c940] Weighted P-Frames: Y:0.0% UV:0.0%\n[libx264 @ 000001fc4e36c940] ref P L0: 53.4% 16.8% 14.5%  7.2%  6.4%  1.7%\n[libx264 @ 000001fc4e36c940] ref B L0: 89.7%  6.5%  2.8%  1.0%\n[libx264 @ 000001fc4e36c940] ref B L1: 98.2%  1.8%\n[libx264 @ 000001fc4e36c940] kb/s:7683.40\n",
  "seconds": 20.147443294525146,
  "probe_out": {}
}